<svg width="32" height="32" viewBox="0 0 32 32" fill="none" xmlns="http://www.w3.org/2000/svg">
<g clip-path="url(#clip0_1_40)">
<path d="M30.828 12.0707L20.7147 1.95C19.463 0.701239 17.7675 0 16 0C14.2325 0 12.537 0.701239 11.2853 1.95L1.17201 12.0707C0.799249 12.4413 0.503709 12.8823 0.302526 13.368C0.101343 13.8537 -0.00148053 14.3746 1.6106e-05 14.9004V27.9975C1.6106e-05 29.059 0.421443 30.0771 1.17159 30.8277C1.92173 31.5783 2.93915 31.9999 4.00001 31.9999H28C29.0609 31.9999 30.0783 31.5783 30.8284 30.8277C31.5786 30.0771 32 29.059 32 27.9975V14.9004C32.0015 14.3746 31.8987 13.8537 31.6975 13.368C31.4963 12.8823 31.2007 12.4413 30.828 12.0707ZM20 29.3317H12V24.0832C12 23.0217 12.4214 22.0037 13.1716 21.2531C13.9217 20.5025 14.9391 20.0808 16 20.0808C17.0609 20.0808 18.0783 20.5025 18.8284 21.2531C19.5786 22.0037 20 23.0217 20 24.0832V29.3317ZM29.3333 27.9975C29.3333 28.3514 29.1928 28.6907 28.9428 28.9409C28.6927 29.1911 28.3536 29.3317 28 29.3317H22.6667V24.0832C22.6667 22.314 21.9643 20.6173 20.714 19.3664C19.4638 18.1154 17.7681 17.4126 16 17.4126C14.2319 17.4126 12.5362 18.1154 11.286 19.3664C10.0357 20.6173 9.33334 22.314 9.33334 24.0832V29.3317H4.00001C3.64639 29.3317 3.30725 29.1911 3.0572 28.9409C2.80716 28.6907 2.66668 28.3514 2.66668 27.9975V14.9004C2.66792 14.5468 2.80827 14.208 3.05735 13.9572L13.1707 3.84046C13.9223 3.09192 14.9396 2.67169 16 2.67169C17.0604 2.67169 18.0777 3.09192 18.8293 3.84046L28.9427 13.9612C29.1908 14.211 29.331 14.5482 29.3333 14.9004V27.9975Z" fill="#EEE5FB"/>
</g>
<defs>
<clipPath id="clip0_1_40">
<rect width="32" height="32" fill="white"/>
</clipPath>
</defs>
</svg>
