<svg width="32" height="32" viewBox="0 0 32 32" fill="none" xmlns="http://www.w3.org/2000/svg">
<g clip-path="url(#clip0_1_35)">
<path d="M28 5.33333H23.8667C23.5572 3.82855 22.7384 2.47646 21.5483 1.50496C20.3582 0.533453 18.8696 0.00193937 17.3333 0L14.6667 0C13.1304 0.00193937 11.6418 0.533453 10.4517 1.50496C9.26157 2.47646 8.44279 3.82855 8.13333 5.33333H4C3.64638 5.33333 3.30724 5.47381 3.05719 5.72386C2.80714 5.97391 2.66666 6.31305 2.66666 6.66667C2.66666 7.02029 2.80714 7.35943 3.05719 7.60948C3.30724 7.85952 3.64638 8 4 8H5.33333V25.3333C5.33545 27.1008 6.03851 28.7953 7.28829 30.045C8.53807 31.2948 10.2325 31.9979 12 32H20C21.7675 31.9979 23.4619 31.2948 24.7117 30.045C25.9615 28.7953 26.6645 27.1008 26.6667 25.3333V8H28C28.3536 8 28.6928 7.85952 28.9428 7.60948C29.1929 7.35943 29.3333 7.02029 29.3333 6.66667C29.3333 6.31305 29.1929 5.97391 28.9428 5.72386C28.6928 5.47381 28.3536 5.33333 28 5.33333ZM14.6667 2.66667H17.3333C18.1604 2.66768 18.9668 2.9245 19.6421 3.40192C20.3175 3.87935 20.8286 4.55399 21.1053 5.33333H10.8947C11.1714 4.55399 11.6825 3.87935 12.3578 3.40192C13.0332 2.9245 13.8396 2.66768 14.6667 2.66667ZM24 25.3333C24 26.3942 23.5786 27.4116 22.8284 28.1618C22.0783 28.9119 21.0609 29.3333 20 29.3333H12C10.9391 29.3333 9.92172 28.9119 9.17157 28.1618C8.42143 27.4116 8 26.3942 8 25.3333V8H24V25.3333Z" fill="#EEE5FB"/>
<path d="M13.3333 24C13.687 24 14.0261 23.8595 14.2761 23.6095C14.5262 23.3594 14.6667 23.0203 14.6667 22.6667V14.6667C14.6667 14.313 14.5262 13.9739 14.2761 13.7239C14.0261 13.4738 13.687 13.3333 13.3333 13.3333C12.9797 13.3333 12.6406 13.4738 12.3905 13.7239C12.1405 13.9739 12 14.313 12 14.6667V22.6667C12 23.0203 12.1405 23.3594 12.3905 23.6095C12.6406 23.8595 12.9797 24 13.3333 24Z" fill="#EEE5FB"/>
<path d="M18.6667 24C19.0203 24 19.3594 23.8595 19.6095 23.6095C19.8595 23.3594 20 23.0203 20 22.6667V14.6667C20 14.313 19.8595 13.9739 19.6095 13.7239C19.3594 13.4738 19.0203 13.3333 18.6667 13.3333C18.313 13.3333 17.9739 13.4738 17.7239 13.7239C17.4738 13.9739 17.3333 14.313 17.3333 14.6667V22.6667C17.3333 23.0203 17.4738 23.3594 17.7239 23.6095C17.9739 23.8595 18.313 24 18.6667 24Z" fill="#EEE5FB"/>
</g>
<defs>
<clipPath id="clip0_1_35">
<rect width="32" height="32" fill="white"/>
</clipPath>
</defs>
</svg>
